<?xml version="1.0" encoding="utf-8"?>
<!-- Generator: Adobe Illustrator 25.3.1, SVG Export Plug-In . SVG Version: 6.00 Build 0)  -->
<svg version="1.1" id="Vrstva_1" xmlns="http://www.w3.org/2000/svg" xmlns:xlink="http://www.w3.org/1999/xlink" x="0px" y="0px"
	 viewBox="0 0 530.1 46.8" style="enable-background:new 0 0 530.1 46.8;" xml:space="preserve">
<style type="text/css">
	.st0{fill:#F36D21;}
</style>
<g>
	<g>
		<path d="M0,2.3h18.8v3.2H3.9v11.9h13.9v3.2H3.9v12h16v3.2H0V2.3z"/>
		<path d="M25.8,9.9h3.8v2.9c2.4-1.7,5.2-3.6,9-3.6c7.7,0,8.1,5.4,8.1,9.9v16.7h-3.7v-16c0-4.5-0.6-7.3-5.4-7.3c-3,0-6,2-8.1,3.2
			v20.1h-3.8V9.9z"/>
		<path d="M54.7,45.8l0.7-3.3c1.1,0.2,4.9,0.9,6.9,0.9c4.4,0,7.8-0.8,7.8-6.7v-2.7c-1.5,1.4-3.4,2.2-5.9,2.2
			c-5.4,0-11.5-1.7-11.5-13.3c0-9.3,5.6-13.8,12.4-13.8c3.3,0,6,0.5,8.8,1v27.3c0,6.3-4.5,9.2-10.6,9.2
			C59.3,46.8,55.8,46.1,54.7,45.8z M70,30.9V13c-1.3-0.2-2.6-0.5-5-0.5c-6.3,0-8.6,4.8-8.6,10.7c0,7.2,2.8,10,8,10
			C67,33.2,69,31.7,70,30.9z"/>
		<path d="M80.7,3.1L83.8,0l3.2,3.1l-3.2,3.2L80.7,3.1z M81.9,9.9h3.8v26h-3.8V9.9z"/>
		<path d="M93.7,9.9h3.8v2.9c2.4-1.7,5.2-3.6,9-3.6c7.7,0,8.1,5.4,8.1,9.9v16.7h-3.7v-16c0-4.5-0.6-7.3-5.4-7.3c-3,0-6,2-8.1,3.2
			v20.1h-3.8V9.9z"/>
		<path d="M120.4,23.4c0-10.5,5.1-14.1,11.6-14.1c6.4,0,9.4,4.4,9.4,13v1.4h-17.2c0.1,8.3,4.2,9.6,9.6,9.6c1.9,0,5.3-0.8,6.4-1.1
			l0.7,3.1c-0.9,0.3-4,1.2-8.2,1.2C125.2,36.5,120.4,33.3,120.4,23.4z M137.5,20.8c0-5.2-1.9-8.8-6-8.8c-3.9,0-6.7,2.9-7.2,8.8
			H137.5z"/>
		<path d="M145.4,23.4c0-10.5,5.1-14.1,11.6-14.1c6.4,0,9.4,4.4,9.4,13v1.4h-17.2c0.1,8.3,4.2,9.6,9.6,9.6c1.9,0,5.3-0.8,6.4-1.1
			l0.7,3.1c-0.9,0.3-4,1.2-8.2,1.2C150.1,36.5,145.4,33.3,145.4,23.4z M162.4,20.8c0-5.2-1.9-8.8-6-8.8c-3.9,0-6.7,2.9-7.2,8.8
			H162.4z"/>
		<path d="M172.1,9.9h3.8v3.5c1.1-2,3.8-4,7.4-4c1.5,0,2.6,0.3,3,0.4l-0.7,3.2c-0.8-0.2-1.5-0.3-3-0.3c-3.1,0-5.5,2.2-6.8,4.1v19.1
			h-3.8V9.9z"/>
		<path d="M187.3,23.4c0-10.5,5.1-14.1,11.6-14.1c6.4,0,9.4,4.4,9.4,13v1.4h-17.2c0.1,8.3,4.2,9.6,9.6,9.6c1.9,0,5.3-0.8,6.4-1.1
			l0.7,3.1c-0.9,0.3-4,1.2-8.2,1.2C192,36.5,187.3,33.3,187.3,23.4z M204.3,20.8c0-5.2-1.9-8.8-6-8.8c-3.9,0-6.7,2.9-7.2,8.8H204.3z
			"/>
		<path d="M212.2,23c0-9.1,5.6-13.8,12.3-13.8c2.4,0,3.3,0.1,5.2,0.7V0h3.7v35.9h-3.7v-2.5c-1.5,1.4-3.8,2.9-6.6,2.9
			C218.4,36.4,212.2,34.5,212.2,23z M229.7,30.3V13.2c-1.2-0.4-2.6-0.8-5.2-0.8c-6.2,0-8.5,5.3-8.5,10.8c0,7,3,10,7.4,10
			C225.9,33.2,228.6,31.1,229.7,30.3z"/>
		<path d="M250.5,35.1V0h3.8v32.5c1.2,0.3,2.6,0.6,5.4,0.6c5.7,0,8.5-4.8,8.5-10.6c0-5.3-1.2-10.1-7.4-10.1c-1.1,0-2.3,0.2-3.1,0.5
			l-0.4-2.8c0.9-0.4,2.5-0.7,4.2-0.7c6.8,0,10.6,4.4,10.6,12.4c0,10.8-5.9,14.5-12.5,14.5C253.9,36.3,251.7,35.4,250.5,35.1z"/>
		<path d="M284.6,35.9h-1.8l-8.4-26h4.1l5.7,18.6l1.4,4.7l1.5-4.6l6.4-18.7h3.9l-12.7,36.4H281L284.6,35.9z"/>
	</g>
</g>
<path class="st0" d="M360,22c2.2-0.8,4-2,5.4-3.7c1.4-1.7,2.1-3.9,2.1-6.4c0-2.2-0.5-4.2-1.6-6c-1.1-1.8-2.6-3.2-4.6-4.3
	c-2-1.1-4.3-1.6-7-1.6h-13l-10.5,19.4L320.9,0h-10.2v36h9.2V16.1L330.7,36l16-29.2h7c1.1,0,2.1,0.2,3,0.7c0.9,0.4,1.6,1,2,1.8
	c0.5,0.8,0.7,1.6,0.7,2.6c0,1.5-0.5,2.8-1.6,3.7c-1.1,0.9-2.4,1.4-4.2,1.4h-9l-3.5,6.7l11,0l5.6,12.3h9.2L360,22z"/>
<g>
	<path d="M378.8,35.3l0.7-3.1c1.7,0.4,4.3,1.1,6.6,1.1c4,0,6.5-1.6,6.5-4c0-6-13.1-4-13.1-12.9c0-4.7,3.8-7.1,8.9-7.1
		c2.8,0,5.3,0.8,6.3,1.1l-0.7,3c-1.2-0.3-3.1-1-6-1c-3.3,0-4.9,1.7-4.9,3.8c0,6,13,4.3,13,12.8c0,5.9-5.5,7.5-9.8,7.5
		C382.9,36.4,380.3,35.8,378.8,35.3z"/>
	<path d="M403.3,28.7V13.1h-3.8V9.9h3.8V4.6h3.7v5.3h8.1v3.2H407v15.5c0,3.8,1,4.5,4.9,4.5c1.5,0,3.5-0.5,4.1-0.7l0.7,3.1
		c-0.9,0.3-3,0.9-4.6,0.9C407.3,36.4,403.3,36.3,403.3,28.7z"/>
	<path d="M421.5,26.5V9.9h3.8v15.8c0,4.1,0.3,7.3,5,7.3c3.3,0,7.1-2.5,8.3-3.2V9.9h3.6v26h-3.6v-3c-2,1.3-5.1,3.6-9.3,3.6
		C422,36.5,421.5,30.9,421.5,26.5z"/>
	<path d="M447.7,23c0-9.1,5.6-13.8,12.3-13.8c2.4,0,3.3,0.1,5.2,0.7V0h3.7v35.9h-3.7v-2.5c-1.5,1.4-3.8,3-6.6,3
		C453.9,36.4,447.7,34.5,447.7,23z M465.2,30.3V13.1c-1.2-0.4-2.6-0.8-5.2-0.8c-6.2,0-8.5,5.3-8.5,10.8c0,7,3,10,7.4,10
		C461.4,33.2,464.1,31.1,465.2,30.3z"/>
	<path d="M475,3.1l3.1-3.1l3.2,3.1l-3.2,3.2L475,3.1z M476.3,9.9h3.8v26h-3.8V9.9z"/>
	<path d="M485.6,23.2c0-9,5-13.9,11.9-13.9c7.7,0,11.5,4.9,11.5,13.7c0,9.1-5,13.6-11.8,13.6C490.1,36.5,485.6,31.7,485.6,23.2z
		 M505.3,22.9c0-4.8-1.5-10.6-7.9-10.6c-6.3,0-7.9,5.7-7.9,10.6c0,5.4,1.9,10.4,8,10.4C503.8,33.4,505.3,28.1,505.3,22.9z"/>
	<path d="M512.7,35.3l0.7-3.1c1.7,0.4,4.3,1.1,6.6,1.1c4,0,6.5-1.6,6.5-4c0-6-13.1-4-13.1-12.9c0-4.7,3.8-7.1,8.9-7.1
		c2.8,0,5.3,0.8,6.3,1.1l-0.7,3c-1.2-0.3-3.1-1-6-1c-3.3,0-4.9,1.7-4.9,3.8c0,6,13,4.3,13,12.8c0,5.9-5.5,7.5-9.8,7.5
		C516.8,36.4,514.2,35.8,512.7,35.3z"/>
</g>
</svg>
