<svg width="160" height="32" viewBox="0 0 160 32" fill="none" xmlns="http://www.w3.org/2000/svg">
<g clip-path="url(#clip0)">
<path d="M47.94 21.705C47.94 18.845 45.81 17.955 43.36 17.0075C41.435 16.2775 40.0075 15.6675 40.0075 13.7575C40.0075 12.3 41.2325 11.105 43.36 11.105C44.5452 11.1139 45.7054 11.4468 46.715 12.0675L47.385 10.7825C46.127 10.0635 44.6989 9.69565 43.25 9.71749C40.065 9.71749 38.25 11.5 38.25 13.77C38.25 16.4825 40.2625 17.445 42.595 18.32C44.6375 19.07 46.1525 19.7775 46.1525 21.675C46.1525 23.455 44.6075 24.59 42.3025 24.59C40.9784 24.5578 39.6802 24.2153 38.5125 23.59L37.8425 24.9325C38.95 25.5725 40.7575 26.01 42.3425 26.01C45.8125 26.01 47.9425 24.29 47.9425 21.695L47.94 21.705ZM63.9575 9.99999H62.09L57.775 22.17C57.5371 22.8571 57.3425 23.5585 57.1925 24.27H57.1325C57.0003 23.5574 56.8156 22.8554 56.58 22.17L52.2625 9.99999H50.395L56.3175 25.72L53.955 32H55.7325L63.9575 9.99999ZM76.0925 21.6975C76.0925 18.8375 73.965 17.9475 71.515 17C69.59 16.27 68.16 15.66 68.16 13.75C68.16 12.2925 69.385 11.0975 71.515 11.0975C72.6993 11.1069 73.8586 11.4397 74.8675 12.06L75.54 10.775C74.2807 10.0511 72.85 9.67896 71.3975 9.69749C68.2175 9.69749 66.41 11.475 66.41 13.75C66.41 16.4625 68.4225 17.425 70.755 18.3C72.7975 19.05 74.315 19.7575 74.315 21.655C74.315 23.435 72.7675 24.57 70.465 24.57C69.14 24.5381 67.841 24.1955 66.6725 23.57L66 24.9425C67.1075 25.5825 68.915 26.02 70.5 26.02C73.9725 26.02 76.1 24.3 76.1 21.705L76.0925 21.6975ZM86.2675 25.6975V24.1975C85.9566 24.2975 85.6316 24.3464 85.305 24.3425C83.9075 24.3425 82.71 23.615 82.71 21.865V11.32H86.2675V9.99999H82.71V5.45749L81.0475 6.09999V9.99999H78.5975V11.3125H81.0475V21.9375C81.0475 24.59 82.71 25.875 85.0475 25.875C85.4625 25.896 85.8776 25.8366 86.27 25.7L86.2675 25.6975ZM101 16.22C101 12.08 98.58 9.71999 94.935 9.71999C90.82 9.71999 88.285 13.015 88.285 17.8575C88.285 23.195 91.1125 26.0225 95.605 26.0225C97.5875 26.0225 99.455 25.555 100.505 24.945L99.9225 23.6025C98.9225 24.185 97.2375 24.6025 95.6725 24.6025C92.3475 24.6025 90.19 22.65 89.9575 18.8L100.98 17.1675C101.01 16.815 101.01 16.525 101.01 16.2325L101 16.22ZM99.3375 16.105L89.8575 17.475C89.9475 13.625 91.8425 11.0875 94.935 11.0875C97.56 11.0875 99.3075 12.6925 99.3375 16.105ZM125.14 25.7275V14.645C125.14 11.6125 123.01 9.71749 119.89 9.71749C117.585 9.71749 115.778 10.68 114.815 11.6425C114 10.5925 112.28 9.71749 109.888 9.71749C108.092 9.71902 106.315 10.0856 104.665 10.795V25.7275H106.388V11.7875C107.511 11.3458 108.71 11.1276 109.918 11.145C112.338 11.145 114.058 12.3425 114.058 14.2675V25.7275H115.778V12.7275C116.623 11.7275 117.965 11.1525 119.658 11.1525C121.815 11.1525 123.42 12.465 123.42 14.74V25.74L125.14 25.7275ZM140.93 24.9425V15.025C140.93 11.145 138.655 9.68749 134.893 9.68749C133.011 9.70231 131.15 10.0783 129.41 10.795L130.225 12.9825C131.598 12.3818 133.075 12.0548 134.573 12.02C136.585 12.02 137.898 12.72 137.898 14.705V15.705C133.148 15.955 128.475 16.755 128.475 21.1325C128.475 24.2225 130.75 26.0575 135.273 26.0575C137.49 26.0575 139.793 25.5575 140.93 24.9525V24.9425ZM137.898 23.3375C137.398 23.57 136.205 23.745 135.185 23.745C132.765 23.745 131.48 22.725 131.48 21.0625C131.48 18.2625 134.69 18 137.898 17.8125V23.3125V23.3375ZM148.26 5.33749C148.242 4.84649 148.035 4.38154 147.681 4.04049C147.327 3.69943 146.855 3.50885 146.364 3.50885C145.872 3.50885 145.4 3.69943 145.047 4.04049C144.693 4.38154 144.485 4.84649 144.468 5.33749C144.485 5.82849 144.693 6.29343 145.047 6.63449C145.4 6.97555 145.872 7.16612 146.364 7.16612C146.855 7.16612 147.327 6.97555 147.681 6.63449C148.035 6.29343 148.242 5.82849 148.26 5.33749ZM147.968 25.7225V9.99999H144.75V25.72L147.968 25.7225ZM159.718 9.79999C159.129 9.70917 158.533 9.66985 157.938 9.68249C155.605 9.68249 153.358 10.15 151.843 10.79V25.7225H155V12.6925C156.315 12.2423 157.727 12.161 159.085 12.4575L159.698 9.80499L159.718 9.79999Z" fill="#002543"/>
<path d="M16.825 23.1675C16.6346 23.3084 16.4068 23.3897 16.1702 23.4011C15.9336 23.4125 15.699 23.3535 15.496 23.2316C15.2929 23.1096 15.1306 22.9302 15.0296 22.716C14.9285 22.5018 14.8932 22.2625 14.9282 22.0282C14.9631 21.794 15.0668 21.5754 15.226 21.4C15.3852 21.2247 15.5928 21.1005 15.8226 21.0431C16.0524 20.9858 16.294 20.9979 16.517 21.0779C16.7399 21.1579 16.9341 21.3021 17.075 21.4925C17.262 21.7485 17.3407 22.0678 17.2939 22.3813C17.2471 22.6949 17.0786 22.9773 16.825 23.1675Z" fill="#004985"/>
<path d="M19.62 22.79C19.4678 22.9026 19.2856 22.9675 19.0965 22.9765C18.9074 22.9856 18.7198 22.9383 18.5575 22.8408C18.3953 22.7433 18.2655 22.5999 18.1848 22.4286C18.104 22.2574 18.0758 22.066 18.1038 21.8788C18.1317 21.6915 18.2145 21.5168 18.3418 21.3766C18.469 21.2364 18.635 21.1371 18.8187 21.0912C19.0024 21.0453 19.1955 21.0549 19.3738 21.1188C19.552 21.1826 19.7073 21.2979 19.82 21.45C19.9688 21.6551 20.0311 21.9103 19.9937 22.1609C19.9563 22.4114 19.8222 22.6373 19.62 22.79Z" fill="#004985"/>
<path d="M21.6625 20.7675C21.5103 20.8801 21.3281 20.945 21.139 20.954C20.9499 20.9631 20.7623 20.9159 20.6 20.8183C20.4378 20.7208 20.308 20.5774 20.2273 20.4061C20.1465 20.2349 20.1183 20.0435 20.1462 19.8563C20.1742 19.669 20.257 19.4943 20.3843 19.3541C20.5115 19.2139 20.6775 19.1146 20.8612 19.0687C21.0449 19.0228 21.238 19.0324 21.4163 19.0963C21.5945 19.1601 21.7498 19.2754 21.8625 19.4275C22.0069 19.6341 22.0667 19.8881 22.0295 20.1374C21.9923 20.3866 21.861 20.6122 21.6625 20.7675Z" fill="#004985"/>
<path d="M13.665 18.1675C13.4939 18.3039 13.2965 18.4036 13.0852 18.4604C12.8739 18.5172 12.6532 18.53 12.4368 18.4979C12.2204 18.4657 12.0128 18.3894 11.8272 18.2737C11.6415 18.1579 11.4816 18.0052 11.3575 17.825C11.2182 17.6522 11.1155 17.4529 11.0556 17.2392C10.9957 17.0254 10.9799 16.8018 11.0091 16.5817C11.0384 16.3617 11.112 16.1499 11.2256 15.9592C11.3392 15.7686 11.4904 15.603 11.67 15.4725C11.8487 15.3367 12.0528 15.238 12.2702 15.1822C12.4876 15.1265 12.714 15.1148 12.9361 15.1479C13.1581 15.181 13.3712 15.2581 13.563 15.3749C13.7547 15.4916 13.9211 15.6455 14.0525 15.8275C14.186 16.0046 14.2821 16.2071 14.335 16.4225C14.3879 16.6378 14.3965 16.8617 14.3603 17.0806C14.324 17.2994 14.2437 17.5086 14.1242 17.6954C14.0047 17.8823 13.8485 18.0429 13.665 18.1675Z" fill="#004985"/>
<path d="M15.9749 14.8525C15.795 14.9969 15.5872 15.1028 15.3646 15.1635C15.142 15.2242 14.9092 15.2385 14.6808 15.2054C14.4525 15.1724 14.2333 15.0927 14.0371 14.9713C13.8408 14.85 13.6716 14.6895 13.5399 14.5C13.3901 14.3172 13.2793 14.1056 13.2144 13.8783C13.1496 13.651 13.1321 13.4128 13.163 13.1785C13.194 12.9441 13.2727 12.7186 13.3943 12.5159C13.5159 12.3132 13.6778 12.1376 13.8699 12C14.0586 11.8565 14.274 11.7522 14.5036 11.6933C14.7331 11.6344 14.9721 11.622 15.2066 11.657C15.441 11.6919 15.666 11.7735 15.8684 11.8968C16.0708 12.0201 16.2464 12.1827 16.3849 12.375C16.5256 12.5621 16.6268 12.7758 16.6825 13.0032C16.7381 13.2306 16.747 13.4669 16.7087 13.6978C16.6704 13.9287 16.5856 14.1494 16.4595 14.3466C16.3333 14.5438 16.1685 14.7134 15.9749 14.845V14.8525Z" fill="#004985"/>
<path d="M14.2624 21.6C14.1155 21.7166 13.9461 21.8017 13.7649 21.85C13.5837 21.8983 13.3945 21.9089 13.209 21.881C13.0235 21.8531 12.8458 21.7873 12.6868 21.6878C12.5278 21.5883 12.391 21.4571 12.2849 21.3025C12.1676 21.155 12.0814 20.9854 12.0312 20.8038C11.9811 20.6222 11.9681 20.4323 11.9931 20.2456C12.018 20.0588 12.0805 19.879 12.1766 19.717C12.2727 19.5549 12.4005 19.4139 12.5524 19.3025C12.7055 19.1857 12.8805 19.1009 13.067 19.053C13.2535 19.0051 13.4477 18.995 13.6381 19.0235C13.8285 19.0519 14.0113 19.1182 14.1757 19.2185C14.34 19.3189 14.4826 19.4511 14.5949 19.6075C14.7085 19.7591 14.7903 19.9322 14.8351 20.1163C14.88 20.3004 14.8872 20.4916 14.8561 20.6785C14.825 20.8654 14.7564 21.0441 14.6543 21.2038C14.5523 21.3634 14.419 21.5008 14.2624 21.6075V21.6Z" fill="#004985"/>
<path d="M22.0449 17.8875C21.9309 17.9724 21.7943 18.0215 21.6523 18.0286C21.5104 18.0357 21.3695 18.0005 21.2476 17.9274C21.1257 17.8544 21.0282 17.7468 20.9676 17.6183C20.9069 17.4897 20.8858 17.3461 20.9069 17.2055C20.9279 17.065 20.9903 16.9339 21.086 16.8288C21.1817 16.7238 21.3064 16.6495 21.4444 16.6154C21.5824 16.5813 21.7274 16.589 21.861 16.6374C21.9946 16.6859 22.1108 16.7729 22.1949 16.8875C22.2991 17.0429 22.3415 17.2316 22.3138 17.4166C22.286 17.6016 22.1901 17.7696 22.0449 17.8875Z" fill="#004985"/>
<path d="M21.1276 15.44C21.0325 15.5112 20.9184 15.5525 20.7997 15.5588C20.6811 15.5651 20.5633 15.5361 20.4612 15.4753C20.3591 15.4146 20.2773 15.3249 20.2263 15.2176C20.1752 15.1104 20.1571 14.9904 20.1743 14.8728C20.1915 14.7553 20.2432 14.6455 20.3228 14.5574C20.4025 14.4692 20.5065 14.4067 20.6217 14.3778C20.7369 14.3488 20.8582 14.3547 20.97 14.3947C21.0819 14.4347 21.1793 14.507 21.2501 14.6025C21.3396 14.7316 21.3767 14.8899 21.354 15.0454C21.3312 15.2009 21.2503 15.3419 21.1276 15.44Z" fill="#004985"/>
<path d="M19.0449 13.765C18.9495 13.8356 18.8354 13.8762 18.7169 13.8819C18.5984 13.8876 18.4809 13.8581 18.3792 13.797C18.2775 13.7359 18.1962 13.6461 18.1456 13.5388C18.0949 13.4315 18.0772 13.3116 18.0947 13.1943C18.1121 13.077 18.164 12.9674 18.2437 12.8796C18.3234 12.7917 18.4273 12.7294 18.5424 12.7006C18.6574 12.6718 18.7785 12.6777 18.8902 12.7177C19.0019 12.7576 19.0992 12.8298 19.1699 12.925C19.2599 13.0546 19.297 13.2137 19.2738 13.3698C19.2506 13.5258 19.1687 13.6672 19.0449 13.765Z" fill="#004985"/>
<path d="M18.565 27.7625C18.3864 27.8278 18.1963 27.8558 18.0065 27.8449C17.8167 27.834 17.6311 27.7845 17.4611 27.6992C17.2911 27.614 17.1403 27.495 17.0181 27.3493C16.8958 27.2037 16.8045 27.0347 16.75 26.8525C16.6805 26.6714 16.6487 26.4779 16.6564 26.2841C16.6642 26.0902 16.7114 25.9 16.7952 25.725C16.8789 25.5499 16.9975 25.3938 17.1436 25.2662C17.2897 25.1385 17.4603 25.042 17.645 24.9825C17.8301 24.9173 18.0265 24.89 18.2224 24.9021C18.4184 24.9142 18.6099 24.9654 18.7856 25.0528C18.9614 25.1402 19.1178 25.262 19.2457 25.411C19.3735 25.5599 19.4702 25.733 19.53 25.92C19.5933 26.1033 19.6187 26.2976 19.6046 26.491C19.5906 26.6845 19.5375 26.873 19.4484 27.0453C19.3594 27.2176 19.2362 27.37 19.0865 27.4933C18.9368 27.6165 18.7636 27.7081 18.5775 27.7625H18.565Z" fill="#004985"/>
<path d="M25.6826 19.5575C25.5419 19.6055 25.3901 19.6106 25.2465 19.5722C25.1029 19.5338 24.974 19.4535 24.8761 19.3417C24.7782 19.2298 24.7157 19.0914 24.6966 18.944C24.6776 18.7966 24.7027 18.6468 24.7689 18.5137C24.8351 18.3806 24.9394 18.2702 25.0684 18.1964C25.1975 18.1227 25.3456 18.089 25.4939 18.0996C25.6421 18.1102 25.7839 18.1646 25.9012 18.2559C26.0185 18.3472 26.106 18.4714 26.1526 18.6125C26.1854 18.7053 26.1992 18.8038 26.1932 18.9021C26.1871 19.0003 26.1615 19.0964 26.1176 19.1845C26.0738 19.2726 26.0127 19.3511 25.938 19.4151C25.8632 19.4792 25.7764 19.5276 25.6826 19.5575Z" fill="#004985"/>
<path d="M22.375 26.035C22.1505 26.1113 21.9085 26.1192 21.6796 26.0578C21.4507 25.9964 21.2451 25.8685 21.0889 25.6902C20.9327 25.5119 20.833 25.2912 20.8023 25.0562C20.7716 24.8212 20.8114 24.5823 20.9165 24.3699C21.0217 24.1575 21.1875 23.981 21.393 23.8629C21.5985 23.7448 21.8345 23.6904 22.071 23.7064C22.3074 23.7225 22.5338 23.8084 22.7215 23.9532C22.9091 24.0981 23.0495 24.2953 23.125 24.52C23.1773 24.6686 23.1994 24.8262 23.1899 24.9835C23.1804 25.1408 23.1395 25.2945 23.0696 25.4357C22.9997 25.5769 22.9022 25.7027 22.7829 25.8056C22.6636 25.9086 22.5249 25.9866 22.375 26.035Z" fill="#004985"/>
<path d="M24.7899 22.945C24.6104 23.0047 24.4172 23.0099 24.2348 22.9599C24.0523 22.9099 23.8887 22.807 23.7647 22.6641C23.6407 22.5213 23.5618 22.3449 23.5379 22.1572C23.5141 21.9695 23.5463 21.779 23.6307 21.6096C23.715 21.4403 23.8476 21.2997 24.0117 21.2056C24.1759 21.1116 24.3642 21.0683 24.553 21.0811C24.7417 21.094 24.9224 21.1625 25.0722 21.278C25.2221 21.3935 25.3344 21.5508 25.3949 21.73C25.4353 21.8495 25.4516 21.9758 25.4431 22.1016C25.4345 22.2274 25.4011 22.3503 25.3449 22.4632C25.2887 22.5761 25.2107 22.6768 25.1155 22.7595C25.0202 22.8421 24.9096 22.9052 24.7899 22.945Z" fill="#004985"/>
<path d="M14.035 27.3925C13.827 27.4706 13.6051 27.505 13.3833 27.4934C13.1615 27.4819 12.9444 27.4247 12.7456 27.3255C12.5469 27.2262 12.3708 27.087 12.2283 26.9166C12.0858 26.7462 11.98 26.5482 11.9175 26.335C11.8373 26.125 11.8008 25.9009 11.81 25.6763C11.8192 25.4517 11.874 25.2314 11.971 25.0286C12.0681 24.8259 12.2054 24.645 12.3745 24.497C12.5436 24.3489 12.7411 24.2368 12.955 24.1675C13.1694 24.0925 13.3966 24.061 13.6233 24.075C13.8501 24.089 14.0717 24.1481 14.2753 24.249C14.4788 24.3498 14.6602 24.4903 14.8086 24.6622C14.9571 24.8341 15.0698 25.034 15.14 25.25C15.2129 25.4625 15.242 25.6877 15.2255 25.9117C15.209 26.1358 15.1472 26.3542 15.0439 26.5538C14.9406 26.7533 14.798 26.9299 14.6246 27.0727C14.4512 27.2156 14.2506 27.3218 14.035 27.385V27.3925Z" fill="#004985"/>
<path d="M10.34 24.8175C10.1056 24.905 9.85578 24.9433 9.60596 24.9302C9.35614 24.917 9.1117 24.8526 8.8878 24.741C8.66391 24.6294 8.46535 24.473 8.30445 24.2815C8.14356 24.0899 8.02376 23.8673 7.95251 23.6275C7.86259 23.3904 7.82176 23.1376 7.83249 22.8842C7.84321 22.6309 7.90528 22.3824 8.01491 22.1538C8.12455 21.9252 8.27947 21.7212 8.47029 21.5542C8.66111 21.3873 8.88385 21.2608 9.12501 21.1825C9.36711 21.0978 9.62371 21.0625 9.87968 21.0787C10.1356 21.0949 10.3858 21.1621 10.6153 21.2765C10.8449 21.391 11.0491 21.5502 11.2161 21.7449C11.3831 21.9396 11.5094 22.1657 11.5875 22.41C11.67 22.6499 11.7029 22.904 11.6842 23.157C11.6654 23.41 11.5955 23.6566 11.4786 23.8817C11.3617 24.1069 11.2003 24.3059 11.0041 24.4668C10.808 24.6276 10.5812 24.7469 10.3375 24.8175H10.34Z" fill="#004985"/>
<path d="M8.58249 20.1225C8.33691 20.2153 8.07477 20.2563 7.81257 20.2429C7.55037 20.2295 7.29379 20.1619 7.05897 20.0445C6.82414 19.9271 6.61616 19.7624 6.44811 19.5607C6.28006 19.3589 6.15557 19.1246 6.08249 18.8725C5.98861 18.6251 5.94594 18.3612 5.95705 18.0968C5.96816 17.8324 6.03282 17.5731 6.14712 17.3344C6.26142 17.0958 6.42297 16.8828 6.622 16.7084C6.82103 16.5341 7.05338 16.4019 7.30499 16.32C7.55787 16.2307 7.82611 16.1932 8.09377 16.2097C8.36143 16.2262 8.62304 16.2964 8.86304 16.416C9.10304 16.5357 9.31652 16.7024 9.4908 16.9062C9.66507 17.11 9.79658 17.3468 9.87749 17.6025C9.96188 17.8519 9.99494 18.1159 9.97467 18.3785C9.9544 18.641 9.88122 18.8968 9.75954 19.1303C9.63786 19.3639 9.47019 19.5704 9.26662 19.7375C9.06305 19.9045 8.82779 20.0287 8.57499 20.1025L8.58249 20.1225Z" fill="#004985"/>
<path d="M9.27753 15.12C9.02292 15.216 8.75122 15.2584 8.47945 15.2446C8.20768 15.2308 7.94168 15.1611 7.6981 15.0398C7.45452 14.9185 7.2386 14.7482 7.06385 14.5396C6.8891 14.331 6.75929 14.0886 6.68253 13.8275C6.58476 13.5701 6.54029 13.2955 6.55184 13.0205C6.56338 12.7454 6.63069 12.4755 6.74969 12.2272C6.86869 11.979 7.03689 11.7574 7.24409 11.5761C7.45128 11.3948 7.69316 11.2575 7.95503 11.1725C8.21781 11.0803 8.49638 11.0416 8.77434 11.0587C9.05231 11.0757 9.32404 11.1483 9.57355 11.272C9.82305 11.3957 10.0453 11.568 10.2272 11.7789C10.409 11.9898 10.5469 12.235 10.6325 12.5C10.722 12.7602 10.7577 13.0359 10.7374 13.3103C10.7172 13.5848 10.6414 13.8522 10.5147 14.0965C10.388 14.3408 10.213 14.5568 10.0003 14.7314C9.78769 14.9061 9.54178 15.0357 9.27753 15.1125V15.12Z" fill="#004985"/>
<path d="M18.1126 10.545C17.8489 10.6437 17.5678 10.687 17.2866 10.6723C17.0055 10.6576 16.7304 10.5851 16.4785 10.4594C16.2265 10.3336 16.0032 10.1574 15.8224 9.94158C15.6416 9.72577 15.5072 9.47503 15.4276 9.20499C15.3266 8.93841 15.2808 8.65412 15.2929 8.36932C15.305 8.08452 15.3747 7.80513 15.4979 7.54806C15.621 7.29099 15.7951 7.06157 16.0095 6.87369C16.2238 6.68581 16.4741 6.54337 16.7451 6.45499C17.0177 6.36015 17.3066 6.32079 17.5946 6.33923C17.8827 6.35766 18.1642 6.43351 18.4225 6.56233C18.6808 6.69114 18.9108 6.87031 19.0989 7.0893C19.2869 7.30829 19.4293 7.56267 19.5176 7.83749C19.6098 8.10726 19.6463 8.3929 19.625 8.67718C19.6037 8.96147 19.5251 9.23849 19.3938 9.49152C19.2624 9.74456 19.0812 9.96836 18.861 10.1494C18.6408 10.3305 18.3862 10.465 18.1126 10.545Z" fill="#004985"/>
<path d="M12.9475 11.415C12.6879 11.5126 12.4111 11.5556 12.1341 11.5414C11.8572 11.5272 11.5862 11.4561 11.338 11.3324C11.0898 11.2088 10.8697 11.0353 10.6916 10.8228C10.5134 10.6104 10.381 10.3635 10.3025 10.0975C10.2027 9.83487 10.1573 9.55472 10.169 9.27402C10.1808 8.99333 10.2494 8.71793 10.3707 8.46454C10.492 8.21115 10.6635 7.98503 10.8748 7.79989C11.0861 7.61475 11.3328 7.47445 11.6 7.3875C11.8685 7.29388 12.1531 7.25498 12.4368 7.27309C12.7206 7.2912 12.9979 7.36595 13.2524 7.49294C13.5068 7.61993 13.7332 7.79658 13.9183 8.01247C14.1034 8.22837 14.2434 8.47914 14.33 8.75C14.4214 9.01547 14.4578 9.29674 14.4372 9.57674C14.4166 9.85674 14.3393 10.1296 14.21 10.3789C14.0807 10.6281 13.9021 10.8484 13.6851 11.0265C13.4681 11.2046 13.2171 11.3368 12.9475 11.415Z" fill="#004985"/>
<path d="M25.6575 15.97C25.5167 16.0182 25.3648 16.0234 25.221 15.985C25.0773 15.9467 24.9482 15.8664 24.8502 15.7544C24.7522 15.6425 24.6897 15.5039 24.6707 15.3563C24.6517 15.2088 24.677 15.0589 24.7434 14.9257C24.8098 14.7926 24.9143 14.6822 25.0436 14.6086C25.1729 14.535 25.3212 14.5015 25.4696 14.5125C25.6179 14.5234 25.7597 14.5782 25.8769 14.6699C25.994 14.7616 26.0813 14.8861 26.1275 15.0275C26.1598 15.1202 26.1733 15.2184 26.1671 15.3164C26.1609 15.4144 26.1352 15.5101 26.0913 15.5979C26.0475 15.6858 25.9866 15.764 25.9121 15.8279C25.8375 15.8918 25.751 15.9401 25.6575 15.97Z" fill="#004985"/>
<path d="M24.5 13.265C24.3593 13.313 24.2075 13.3181 24.0639 13.2797C23.9203 13.2413 23.7914 13.161 23.6935 13.0492C23.5956 12.9373 23.5331 12.7989 23.514 12.6515C23.4949 12.5041 23.5201 12.3543 23.5863 12.2212C23.6525 12.0881 23.7567 11.9777 23.8858 11.9039C24.0149 11.8302 24.163 11.7965 24.3112 11.8071C24.4595 11.8177 24.6013 11.8721 24.7186 11.9634C24.8359 12.0547 24.9234 12.1788 24.97 12.32C25.0024 12.4128 25.0159 12.5112 25.0097 12.6094C25.0036 12.7075 24.9778 12.8034 24.934 12.8915C24.8902 12.9795 24.8293 13.058 24.7547 13.1221C24.6802 13.1862 24.5936 13.2348 24.5 13.265Z" fill="#004985"/>
<path d="M22.4574 10.95C22.3168 10.9972 22.1654 11.0016 22.0222 10.9627C21.8791 10.9237 21.7508 10.8433 21.6534 10.7314C21.556 10.6196 21.4939 10.4813 21.4751 10.3342C21.4562 10.1871 21.4814 10.0377 21.5475 9.90493C21.6135 9.77213 21.7175 9.6619 21.8461 9.58817C21.9748 9.51443 22.1225 9.48051 22.2705 9.49069C22.4184 9.50087 22.5601 9.55469 22.6774 9.64534C22.7948 9.736 22.8827 9.85942 22.9299 10C22.9619 10.0929 22.975 10.1912 22.9685 10.2892C22.9619 10.3871 22.9359 10.4828 22.8919 10.5706C22.8479 10.6584 22.7868 10.7365 22.7122 10.8004C22.6376 10.8643 22.551 10.9126 22.4574 10.9425V10.95Z" fill="#004985"/>
<path d="M21.7699 6.79C21.4449 6.65598 21.1498 6.45851 20.9019 6.20912C20.6541 5.95973 20.4585 5.66343 20.3265 5.33754C20.1945 5.01166 20.1288 4.66273 20.1333 4.31116C20.1377 3.95959 20.2122 3.61243 20.3524 3.29C20.4895 2.96711 20.6888 2.67438 20.939 2.42852C21.1892 2.18267 21.4854 1.9885 21.8106 1.8571C22.1359 1.72571 22.4838 1.65966 22.8345 1.66273C23.1853 1.6658 23.532 1.73793 23.8549 1.875C24.1778 2.01206 24.4705 2.21138 24.7164 2.46158C24.9623 2.71178 25.1564 3.00795 25.2878 3.33319C25.4192 3.65843 25.4853 4.00636 25.4822 4.35712C25.4791 4.70788 25.407 5.05461 25.2699 5.3775C25.1357 5.70233 24.938 5.99713 24.6885 6.24463C24.439 6.49213 24.1425 6.68737 23.8166 6.8189C23.4907 6.95044 23.1418 7.01563 22.7904 7.01067C22.4389 7.0057 22.092 6.93068 21.7699 6.79Z" fill="#004985"/>
<path d="M2.35009 13.68C2.06837 13.5692 1.81219 13.4021 1.5972 13.1889C1.38221 12.9758 1.21293 12.7211 1.09969 12.4403C0.986449 12.1596 0.931628 11.8587 0.938575 11.556C0.945521 11.2533 1.01409 10.9553 1.14009 10.68C1.25163 10.3983 1.41848 10.1418 1.63079 9.92573C1.8431 9.70961 2.09657 9.53823 2.37622 9.42171C2.65587 9.30519 2.95604 9.24588 3.259 9.24731C3.56195 9.24873 3.86155 9.31085 4.14009 9.43C4.42646 9.54594 4.6866 9.71828 4.90505 9.93675C5.1235 10.1552 5.2958 10.4154 5.41171 10.7018C5.52762 10.9882 5.58477 11.2949 5.57976 11.6038C5.57476 11.9128 5.50771 12.2175 5.38259 12.5C5.26514 12.78 5.09253 13.0335 4.87504 13.2454C4.65755 13.4573 4.39964 13.6232 4.11667 13.7333C3.8337 13.8434 3.53146 13.8955 3.22796 13.8863C2.92446 13.8771 2.62591 13.807 2.35009 13.68Z" fill="#004985"/>
<path d="M1.31759 18.8925C1.05288 18.7849 0.812195 18.6258 0.609554 18.4243C0.406914 18.2229 0.246358 17.9831 0.137231 17.7191C0.0281037 17.455 -0.0274169 17.1718 -0.0261002 16.8861C-0.0247835 16.6004 0.0333442 16.3177 0.144901 16.0547C0.256457 15.7916 0.419215 15.5534 0.623704 15.3538C0.828193 15.1542 1.07033 14.9973 1.33603 14.8922C1.60172 14.7871 1.88567 14.7358 2.17135 14.7414C2.45704 14.7471 2.73875 14.8095 3.00009 14.925C3.26481 15.0326 3.50549 15.1917 3.70813 15.3931C3.91077 15.5946 4.07133 15.8343 4.18045 16.0984C4.28958 16.3625 4.3451 16.6456 4.34378 16.9314C4.34247 17.2171 4.28434 17.4997 4.17278 17.7628C4.06123 18.0258 3.89847 18.2641 3.69398 18.4637C3.48949 18.6632 3.24735 18.8202 2.98166 18.9253C2.71596 19.0304 2.43201 19.0817 2.14633 19.076C1.86065 19.0704 1.57894 19.008 1.31759 18.8925Z" fill="#004985"/>
<path d="M2.84007 23.75C2.51772 23.6133 2.24315 23.3841 2.05108 23.0914C1.85901 22.7986 1.75808 22.4555 1.76105 22.1054C1.76402 21.7553 1.87076 21.4139 2.06777 21.1245C2.26478 20.835 2.54321 20.6105 2.86784 20.4793C3.19246 20.3481 3.5487 20.3162 3.89149 20.3875C4.23427 20.4588 4.54821 20.6302 4.79359 20.8799C5.03897 21.1297 5.20476 21.4466 5.26999 21.7906C5.33523 22.1346 5.29697 22.4902 5.16007 22.8125C5.0695 23.0265 4.93759 23.2206 4.77191 23.3836C4.60623 23.5466 4.41002 23.6754 4.19453 23.7624C3.97903 23.8495 3.74847 23.8932 3.51606 23.8911C3.28364 23.889 3.05393 23.841 2.84007 23.75Z" fill="#004985"/>
<path d="M5.85005 27.8625C5.66738 27.7926 5.50107 27.6859 5.36151 27.5489C5.22195 27.4119 5.11214 27.2475 5.03894 27.0662C4.96574 26.8848 4.93073 26.6903 4.93608 26.4948C4.94143 26.2993 4.98704 26.1071 5.07005 25.93C5.14 25.7448 5.24683 25.5757 5.38405 25.433C5.52127 25.2903 5.68604 25.177 5.86836 25.0998C6.05068 25.0227 6.24677 24.9834 6.44473 24.9843C6.6427 24.9852 6.83842 25.0262 7.02005 25.105C7.20637 25.1808 7.37554 25.2932 7.51751 25.4357C7.65947 25.5782 7.77133 25.7478 7.84644 25.9344C7.92154 26.121 7.95835 26.3207 7.95467 26.5218C7.951 26.7229 7.90692 26.9213 7.82505 27.105C7.74804 27.2867 7.63503 27.451 7.49283 27.5879C7.35064 27.7248 7.1822 27.8315 6.99766 27.9016C6.81313 27.9717 6.61632 28.0037 6.41909 27.9957C6.22186 27.9876 6.02829 27.9398 5.85005 27.855V27.8625Z" fill="#004985"/>
<path d="M10.3375 30.765C10.0756 30.6533 9.85281 30.4664 9.69729 30.2279C9.54177 29.9895 9.46056 29.7102 9.46397 29.4255C9.46738 29.1408 9.55524 28.8636 9.71642 28.6289C9.8776 28.3942 10.1048 28.2126 10.3693 28.1073C10.6338 28.0019 10.9236 27.9774 11.202 28.037C11.4804 28.0965 11.7349 28.2374 11.9331 28.4418C12.1314 28.6461 12.2645 28.9047 12.3155 29.1848C12.3666 29.4649 12.3334 29.7538 12.22 30.015C12.0668 30.3615 11.7839 30.6341 11.4319 30.7743C11.0799 30.9146 10.687 30.9112 10.3375 30.765Z" fill="#004985"/>
<path d="M21.1824 30.7125C20.9632 30.6208 20.7761 30.466 20.645 30.2679C20.5138 30.0698 20.4444 29.8371 20.4456 29.5995C20.4468 29.3619 20.5185 29.1299 20.6516 28.9331C20.7848 28.7363 20.9734 28.5834 21.1935 28.4939C21.4136 28.4044 21.6553 28.3822 21.8881 28.4302C22.1208 28.4783 22.334 28.5943 22.5007 28.7637C22.6674 28.933 22.7801 29.148 22.8245 29.3815C22.8688 29.6149 22.8429 29.8563 22.7499 30.075C22.6901 30.2211 22.6017 30.3538 22.4899 30.4652C22.3782 30.5767 22.2453 30.6647 22.099 30.7241C21.9528 30.7835 21.7961 30.813 21.6383 30.811C21.4804 30.809 21.3246 30.7755 21.1799 30.7125H21.1824Z" fill="#004985"/>
<path d="M15.7499 31.815C15.512 31.7139 15.3093 31.5444 15.1676 31.3281C15.0259 31.1118 14.9516 30.8584 14.9539 30.5998C14.9563 30.3413 15.0352 30.0892 15.1808 29.8755C15.3264 29.6618 15.532 29.4961 15.7718 29.3993C16.0116 29.3025 16.2747 29.2789 16.5278 29.3316C16.781 29.3843 17.0128 29.5109 17.194 29.6953C17.3752 29.8797 17.4977 30.1138 17.5459 30.3678C17.5941 30.6218 17.566 30.8845 17.4649 31.1225C17.3995 31.2819 17.3028 31.4266 17.1806 31.5481C17.0584 31.6696 16.9131 31.7654 16.7533 31.8299C16.5935 31.8945 16.4224 31.9264 16.2501 31.9238C16.0778 31.9212 15.9077 31.8843 15.7499 31.815Z" fill="#004985"/>
<path d="M25.8624 27.43C25.6866 27.3564 25.5367 27.2322 25.4318 27.0731C25.3269 26.914 25.2717 26.7273 25.2732 26.5368C25.2748 26.3463 25.333 26.1605 25.4404 26.0031C25.5479 25.8458 25.6997 25.7239 25.8767 25.6532C26.0536 25.5824 26.2476 25.5659 26.4339 25.6057C26.6202 25.6456 26.7905 25.7399 26.923 25.8769C27.0555 26.0138 27.1443 26.1871 27.178 26.3746C27.2118 26.5622 27.1889 26.7555 27.1124 26.93C27.0639 27.0455 26.9929 27.1502 26.9036 27.2381C26.8142 27.3259 26.7083 27.3951 26.592 27.4416C26.4757 27.4881 26.3513 27.5111 26.226 27.5091C26.1008 27.5071 25.9772 27.4802 25.8624 27.43Z" fill="#004985"/>
<path d="M15.9324 5.10498C15.6087 4.98104 15.3141 4.79174 15.0669 4.5489C14.8196 4.30605 14.6251 4.01486 14.4954 3.6935C14.3657 3.37214 14.3036 3.02749 14.3129 2.68107C14.3223 2.33464 14.403 1.99386 14.5499 1.67998C15.1424 0.282481 16.6099 -0.375019 17.9999 0.217481C18.329 0.351535 18.6279 0.550104 18.879 0.801485C19.1301 1.05287 19.3284 1.35197 19.4622 1.68118C19.5959 2.01039 19.6624 2.36304 19.6577 2.71834C19.653 3.07364 19.5772 3.42441 19.4349 3.74998C18.8424 5.14748 17.3299 5.69498 15.9349 5.10248L15.9324 5.10498Z" fill="#004985"/>
<path d="M9.98243 5.80748C9.66227 5.68457 9.37081 5.4971 9.1262 5.25673C8.88158 5.01637 8.68904 4.72824 8.56054 4.41028C8.43204 4.09232 8.37034 3.75131 8.37927 3.40848C8.38819 3.06565 8.46756 2.72833 8.61243 2.41748C9.19993 1.03748 10.6524 0.384981 12.0349 0.972481C12.3606 1.10558 12.6564 1.30262 12.9046 1.55196C13.1529 1.80131 13.3487 2.09789 13.4803 2.42418C13.612 2.75047 13.677 3.09985 13.6713 3.45166C13.6656 3.80348 13.5895 4.15059 13.4474 4.47248C12.8624 5.85248 11.3649 6.39498 9.98243 5.80748Z" fill="#004985"/>
<path d="M5.31758 9.12002C5.01859 9.00615 4.74633 8.8318 4.51781 8.60788C4.2893 8.38396 4.10946 8.11528 3.98955 7.81867C3.86964 7.52206 3.81223 7.20389 3.82093 6.88407C3.82962 6.56426 3.90423 6.24968 4.04008 5.96002C4.58758 4.67001 5.94258 4.06251 7.23258 4.61001C7.53626 4.73439 7.81195 4.91832 8.04339 5.15097C8.27483 5.38361 8.45734 5.66025 8.58013 5.96457C8.70293 6.26888 8.76354 6.59471 8.75838 6.92283C8.75322 7.25095 8.68239 7.57471 8.55008 7.87502C8.00258 9.16252 6.60508 9.66752 5.31758 9.12502V9.12002Z" fill="#004985"/>
<path d="M28.5474 23.0425C28.4098 22.9858 28.2923 22.8894 28.2096 22.7657C28.1269 22.642 28.083 22.4964 28.0833 22.3476C28.0835 22.1988 28.1281 22.0535 28.2112 21.9301C28.2944 21.8067 28.4123 21.7108 28.5501 21.6546C28.6879 21.5984 28.8393 21.5845 28.985 21.6146C29.1307 21.6447 29.2642 21.7175 29.3684 21.8237C29.4727 21.9299 29.543 22.0646 29.5704 22.2109C29.5978 22.3572 29.5811 22.5083 29.5224 22.645C29.4855 22.7359 29.4308 22.8186 29.3615 22.888C29.2922 22.9575 29.2096 23.0124 29.1188 23.0494C29.0279 23.0864 28.9305 23.1049 28.8324 23.1037C28.7343 23.1025 28.6374 23.0817 28.5474 23.0425Z" fill="#004985"/>
<path d="M29.7774 18.215C29.6396 18.1582 29.5218 18.0617 29.4391 17.9377C29.3564 17.8137 29.3125 17.6679 29.313 17.5189C29.3135 17.3698 29.3584 17.2243 29.442 17.1009C29.5256 16.9775 29.6441 16.8818 29.7823 16.826C29.9205 16.7702 30.0722 16.7569 30.218 16.7877C30.3639 16.8185 30.4972 16.8921 30.6011 16.999C30.7049 17.1059 30.7745 17.2414 30.801 17.3881C30.8275 17.5347 30.8098 17.686 30.7499 17.8225C30.7129 17.9135 30.6579 17.9962 30.5882 18.0655C30.5185 18.1348 30.4356 18.1895 30.3444 18.2261C30.2532 18.2627 30.1556 18.2806 30.0573 18.2787C29.959 18.2768 29.8622 18.2551 29.7724 18.215H29.7774Z" fill="#004985"/>
<path d="M27.4399 9.18751C27.3027 9.13003 27.1857 9.03303 27.1038 8.90886C27.0218 8.78469 26.9787 8.63895 26.9798 8.49018C26.9809 8.34141 27.0262 8.19633 27.11 8.07339C27.1938 7.95045 27.3122 7.85521 27.4503 7.79977C27.5883 7.74433 27.7398 7.73121 27.8853 7.76207C28.0308 7.79293 28.1639 7.86637 28.2676 7.97307C28.3713 8.07976 28.4409 8.21488 28.4676 8.36124C28.4943 8.5076 28.4768 8.65859 28.4174 8.79501C28.3804 8.88605 28.3254 8.96869 28.2557 9.03803C28.1861 9.10736 28.1032 9.16197 28.0119 9.19859C27.9207 9.23521 27.8231 9.25311 27.7248 9.2512C27.6266 9.2493 27.5297 9.22764 27.4399 9.18751Z" fill="#004985"/>
<path d="M29.295 13.5175C29.1575 13.4606 29.04 13.364 28.9575 13.2401C28.875 13.1162 28.8312 12.9706 28.8318 12.8217C28.8323 12.6729 28.8772 12.5275 28.9606 12.4042C29.044 12.281 29.1622 12.1853 29.3002 12.1294C29.4381 12.0735 29.5896 12.0599 29.7353 12.0904C29.881 12.1208 30.0144 12.194 30.1184 12.3005C30.2224 12.407 30.2923 12.542 30.3193 12.6884C30.3463 12.8348 30.3292 12.9859 30.27 13.1225C30.2335 13.2137 30.1789 13.2965 30.1096 13.3661C30.0403 13.4357 29.9576 13.4906 29.8666 13.5274C29.7755 13.5643 29.678 13.5824 29.5798 13.5807C29.4816 13.579 29.3847 13.5575 29.295 13.5175Z" fill="#004985"/>
</g>
<defs>
<clipPath id="clip0">
<rect width="159.708" height="32" fill="white"/>
</clipPath>
</defs>
</svg>
