<?xml version="1.0" encoding="UTF-8" standalone="no"?>
<svg
   xmlns:dc="http://purl.org/dc/elements/1.1/"
   xmlns:cc="http://creativecommons.org/ns#"
   xmlns:rdf="http://www.w3.org/1999/02/22-rdf-syntax-ns#"
   xmlns:svg="http://www.w3.org/2000/svg"
   xmlns="http://www.w3.org/2000/svg"
   xmlns:sodipodi="http://sodipodi.sourceforge.net/DTD/sodipodi-0.dtd"
   xmlns:inkscape="http://www.inkscape.org/namespaces/inkscape"
   version="1.1"
   id="svg2"
   xml:space="preserve"
   width="2320.04"
   height="2403.28"
   viewBox="0 0 2320.04 2403.28"
   sodipodi:docname="SystemairLogo_noText.eps"><metadata
     id="metadata8"><rdf:RDF><cc:Work
         rdf:about=""><dc:format>image/svg+xml</dc:format><dc:type
           rdf:resource="http://purl.org/dc/dcmitype/StillImage" /></cc:Work></rdf:RDF></metadata><defs
     id="defs6" /><sodipodi:namedview
     pagecolor="#ffffff"
     bordercolor="#666666"
     borderopacity="1"
     objecttolerance="10"
     gridtolerance="10"
     guidetolerance="10"
     inkscape:pageopacity="0"
     inkscape:pageshadow="2"
     inkscape:window-width="640"
     inkscape:window-height="480"
     id="namedview4" /><g
     id="g10"
     inkscape:groupmode="layer"
     inkscape:label="ink_ext_XXXXXX"
     transform="matrix(1.3333333,0,0,-1.3333333,0,2403.28)"><g
       id="g12"
       transform="scale(0.1)"><path
         d="m 9500.45,4943.17 c -298.13,-220.26 -725.46,-156.76 -945.99,140.87 -220.58,298.61 -156.76,725.46 141.36,946.8 298.13,220.25 725.19,156.71 945.99,-141.96 220.58,-297.58 156.76,-725.4 -141.36,-945.71 v 0"
         style="fill:#214e8d;fill-opacity:1;fill-rule:nonzero;stroke:none"
         id="path14" /><path
         d="m 11078.7,5157.08 c -237.2,-175.79 -581.1,-123.9 -756.7,113.33 -175.8,237.23 -124.2,580.35 113,756.15 237.3,175.84 581.2,123.95 756.7,-113.28 175.6,-237.23 124.2,-580.35 -113,-756.2 v 0"
         style="fill:#214e8d;fill-opacity:1;fill-rule:nonzero;stroke:none"
         id="path16" /><path
         d="m 12230.9,6298.76 c -230,-170.54 -586.4,-117.56 -756.7,113.33 -170.2,229.8 -117,585.66 113.1,756.14 230.3,170.54 586.5,117.56 756.7,-113.32 170.5,-229.8 117.3,-585.62 -113.1,-756.15 v 0"
         style="fill:#214e8d;fill-opacity:1;fill-rule:nonzero;stroke:none"
         id="path18" /><path
         d="m 7715.41,7766.6 c -434.77,-321.93 -981.51,-240.38 -1303.16,193.84 -321.98,435.26 -258.16,1006.06 176.88,1327.77 434.98,321.93 1023.57,234.04 1345.23,-200.95 321.71,-435.31 216.08,-999.77 -218.95,-1320.66 v 0"
         style="fill:#214e8d;fill-opacity:1;fill-rule:nonzero;stroke:none"
         id="path20" /><path
         d="m 9020.41,9638.77 c -458.79,-339.44 -1035.73,-253.39 -1375.17,205.45 -339.71,459.08 -272.42,1061.18 186.64,1400.88 458.84,339.4 1079.97,246.7 1419.41,-212.1 339.71,-459.1 227.96,-1054.57 -230.88,-1394.23 v 0"
         style="fill:#214e8d;fill-opacity:1;fill-rule:nonzero;stroke:none"
         id="path22" /><path
         d="m 8053.76,5828.53 c -372.79,-275.34 -841.39,-205.45 -1117.28,167.33 -275.89,372.79 -221.07,862.1 151.72,1137.45 372.79,276.38 877.39,200.14 1153.01,-172.65 275.89,-372.78 185.34,-855.7 -187.45,-1132.13 v 0"
         style="fill:#214e8d;fill-opacity:1;fill-rule:nonzero;stroke:none"
         id="path24" /><path
         d="m 12447.3,7924.39 c -172.9,-128.14 -439.8,-87.91 -567.7,84.74 -127.8,172.65 -87.9,439.49 84.7,567.67 172.9,127.59 439.8,87.9 567.7,-84.75 127.9,-172.6 87.9,-439.48 -84.7,-567.66 v 0"
         style="fill:#214e8d;fill-opacity:1;fill-rule:nonzero;stroke:none"
         id="path26" /><path
         d="m 11928.9,9305.95 c -144.1,-106.45 -366.8,-73.1 -473.1,70.7 -106.5,144.02 -73.1,366.45 70.6,473.1 144,106.45 366.4,73.1 472.9,-70.65 106.7,-144.07 73.3,-366.71 -70.4,-473.15 v 0"
         style="fill:#214e8d;fill-opacity:1;fill-rule:nonzero;stroke:none"
         id="path28" /><path
         d="m 10753.1,10252.8 c -143.8,-106.5 -366.5,-73.1 -472.9,70.7 -106.7,144 -73.4,366.3 70.7,473.1 143.7,106.4 366.4,73 472.8,-70.7 106.5,-144.1 73.4,-366.4 -70.6,-473.1 v 0"
         style="fill:#214e8d;fill-opacity:1;fill-rule:nonzero;stroke:none"
         id="path30" /><path
         d="m 10481.9,2348.46 c -448.8,-149.28 -881.36,65.67 -1031.5,514.74 -150.1,449.03 57.21,906.51 505.96,1055.84 448.84,150.42 914.44,-81.55 1064.64,-530.57 150.1,-449.03 -90.6,-889.59 -539.1,-1040.01 v 0"
         style="fill:#214e8d;fill-opacity:1;fill-rule:nonzero;stroke:none"
         id="path32" /><path
         d="m 14501.3,6981.87 c -224.2,-75.21 -457,41.26 -532.2,265.81 -75.2,224.53 41.1,457.53 265.3,532.68 224.5,74.13 457.3,-41.26 532.5,-265.8 74.9,-224.54 -41.1,-457.54 -265.6,-532.69 v 0"
         style="fill:#214e8d;fill-opacity:1;fill-rule:nonzero;stroke:none"
         id="path34" /><path
         d="m 12634.5,3323.89 c -360.9,-120.75 -735.3,65.66 -856,426.79 -120.8,360.05 65.9,735 426.8,855.7 360.8,120.76 735.2,-65.66 856,-426.79 120.7,-361.13 -66,-735 -426.8,-855.7 v 0"
         style="fill:#214e8d;fill-opacity:1;fill-rule:nonzero;stroke:none"
         id="path36" /><path
         d="m 13998,5069.18 c -284.9,-95.32 -589.4,56.12 -684.7,341.02 -95.3,285.97 56.4,589.89 341.3,685.23 285.1,95.31 589.6,-56.13 684.9,-341.02 95.4,-284.89 -56.4,-589.9 -341.5,-685.23 v 0"
         style="fill:#214e8d;fill-opacity:1;fill-rule:nonzero;stroke:none"
         id="path38" /><path
         d="m 7924.05,2558.2 c -520,-173.68 -1021.19,76.23 -1195.14,596.24 -174.21,520 66.16,1050.58 586.16,1224.27 520,173.67 1059.86,-95.33 1233.81,-615.34 173.94,-520.01 -104.82,-1030.46 -624.83,-1205.17 v 0"
         style="fill:#214e8d;fill-opacity:1;fill-rule:nonzero;stroke:none"
         id="path40" /><path
         d="m 5838.78,4012.26 c -586.48,-195.91 -1151.76,85.78 -1347.95,671.45 -196.18,586.7 74.67,1184.02 661.15,1381.02 586.43,195.91 1195.15,-108.07 1391.32,-693.68 196.19,-586.75 -118.36,-1162.89 -704.52,-1358.79 v 0"
         style="fill:#214e8d;fill-opacity:1;fill-rule:nonzero;stroke:none"
         id="path42" /><path
         d="m 4846.16,6663.09 c -612.13,-205.45 -1202.3,88.92 -1406.94,701.05 -204.97,612.19 77.81,1235.92 689.94,1441.38 612.4,204.43 1247.85,-112.24 1452.76,-724.38 204.7,-612.13 -123.63,-1213.68 -735.76,-1418.05 v 0"
         style="fill:#214e8d;fill-opacity:1;fill-rule:nonzero;stroke:none"
         id="path44" /><path
         d="m 5238.52,9486.51 c -637.29,-213.37 -1251.53,92.94 -1464.63,730.19 -213.16,637.1 81.28,1286.8 718.3,1499.9 637.29,213.2 1298.65,-116.5 1511.81,-753.7 213.37,-637.3 -128.46,-1263.23 -765.48,-1476.39 v 0"
         style="fill:#214e8d;fill-opacity:1;fill-rule:nonzero;stroke:none"
         id="path46" /><path
         d="m 10227.5,12070.6 c -659.81,-220.5 -1295.75,96.4 -1516.33,756.2 -220.8,659.5 83.94,1332 743.73,1552.8 659.5,220.6 1344.5,-120.7 1565,-780.5 220.9,-659.5 -132.9,-1307.7 -792.4,-1528.5 v 0"
         style="fill:#214e8d;fill-opacity:1;fill-rule:nonzero;stroke:none"
         id="path48" /><path
         d="m 7310.3,11578.9 c -649.71,-217.3 -1275.88,94.8 -1493.26,744.5 -217.39,649.8 82.9,1312 732.61,1529.4 649.71,217.6 1324.09,-118.7 1541.47,-768.4 217.38,-649.8 -131.06,-1288.1 -780.82,-1505.5 v 0"
         style="fill:#214e8d;fill-opacity:1;fill-rule:nonzero;stroke:none"
         id="path50" /><path
         d="m 14487,9007.82 c -224.5,-75.2 -457.2,40.78 -532.4,265.32 -74.9,224.22 41,457.22 265.5,532.15 224.3,75.21 457,-41.04 532.2,-265.31 75.2,-224.49 -41,-457.22 -265.3,-532.16 v 0"
         style="fill:#214e8d;fill-opacity:1;fill-rule:nonzero;stroke:none"
         id="path52" /><path
         d="m 13839.9,10535.3 c -224.5,-75 -457.2,41 -532.4,265.5 -74.9,224.3 41,457.3 265.5,532.2 224.3,75.2 457.3,-41.1 532.2,-265.3 75.2,-224.5 -41,-457.2 -265.3,-532.4 v 0"
         style="fill:#214e8d;fill-opacity:1;fill-rule:nonzero;stroke:none"
         id="path54" /><path
         d="m 12681,11842.1 c -224.2,-75.2 -457,41 -532.1,265.3 -75.2,224.5 41,457.3 265.3,532.4 224.5,75 457.2,-41 532.4,-265.5 74.9,-224.3 -41,-457.3 -265.6,-532.2 v 0"
         style="fill:#214e8d;fill-opacity:1;fill-rule:nonzero;stroke:none"
         id="path56" /><path
         d="m 12291.6,14190 c -777.3,329.9 -1129,1199.9 -799.1,1977.6 330.2,777.3 1200.2,1128.9 1977.6,799 777.6,-330.2 1128.9,-1200.2 799,-1977.7 -329.9,-777.4 -1200.1,-1129 -1977.5,-798.9 v 0"
         style="fill:#214e8d;fill-opacity:1;fill-rule:nonzero;stroke:none"
         id="path58" /><path
         d="m 1326.67,10300.1 c -677.525,287.6 -970.115,1011.4 -682.565,1688.9 287.817,677.6 1021.735,994.2 1699.255,706.7 677.53,-287.5 983.84,-1045.8 696.34,-1723.4 -287.55,-677.5 -1035.51,-959.7 -1713.03,-672.2 v 0"
         style="fill:#214e8d;fill-opacity:1;fill-rule:nonzero;stroke:none"
         id="path60" /><path
         d="M 744.199,7356.77 C 118.781,7622.57 -166.324,8327.91 99.207,8952.73 364.797,9578.37 1070.08,9863.26 1695.5,9598 2320.86,9332.41 2605.75,8626.58 2340.43,8001.7 2074.9,7375.8 1369.56,7090.91 744.199,7356.77 v 0"
         style="fill:#214e8d;fill-opacity:1;fill-rule:nonzero;stroke:none"
         id="path62" /><path
         d="m 1604.13,4611.7 c -508.08,216.03 -744.759,801.69 -529,1310.04 215.53,508.35 801.42,744.49 1309.76,529.55 508.08,-216.08 744.82,-801.75 529.02,-1310.1 -215.77,-508.35 -801.7,-744.49 -1309.78,-529.49 v 0"
         style="fill:#214e8d;fill-opacity:1;fill-rule:nonzero;stroke:none"
         id="path64" /><path
         d="m 3303.12,2292.34 c -444.52,188.54 -629.32,646.02 -440.57,1090.82 188.54,444.84 656.59,654.53 1101.18,465.99 444.79,-189.56 643.9,-682.02 455.09,-1126.82 -188.75,-443.77 -670.91,-618.47 -1115.7,-429.99 v 0"
         style="fill:#214e8d;fill-opacity:1;fill-rule:nonzero;stroke:none"
         id="path66" /><path
         d="M 5836.39,652.941 C 5428.9,825.59 5233.54,1309.54 5406.4,1716.21 c 172.92,407.76 656.59,603.67 1064.08,429.99 407.49,-172.64 602.86,-656.59 430,-1063.27 C 6727.56,675.172 6243.83,479.262 5836.39,652.941 v 0"
         style="fill:#214e8d;fill-opacity:1;fill-rule:nonzero;stroke:none"
         id="path68" /><path
         d="m 11960.9,683.629 c -350.3,149.332 -507,536.981 -358.3,887.531 148.6,349.47 536.7,506.18 886.8,357.93 350.2,-148.24 507,-536.92 358.2,-886.45 -148.6,-350.495 -536.4,-507.257 -886.7,-359.011 v 0"
         style="fill:#214e8d;fill-opacity:1;fill-rule:nonzero;stroke:none"
         id="path70" /><path
         d="M 8897.86,60.9258 C 8516.07,222.945 8345,646.594 8507.07,1028.93 c 162.29,382.27 585.4,552.81 967.4,390.79 382.07,-162.08 553.13,-585.673 390.79,-968.005 C 9703.25,70.4688 9279.92,-101.094 8897.86,60.9258 v 0"
         style="fill:#214e8d;fill-opacity:1;fill-rule:nonzero;stroke:none"
         id="path72" /><path
         d="m 14603.5,2537 c -280.1,118.64 -405.6,428.9 -286.7,708.48 118.9,280.66 429.1,405.65 709.3,287 280.3,-118.58 405.6,-428.91 286.7,-709.56 -118.9,-279.58 -429.2,-405.6 -709.3,-285.92 v 0"
         style="fill:#214e8d;fill-opacity:1;fill-rule:nonzero;stroke:none"
         id="path74" /><path
         d="m 8996.33,15142.7 c -788.19,334.4 -1115.71,1145.4 -781.31,1933.8 334.67,788.2 1164.18,1159.6 1952.68,825 788.2,-334.6 1141.1,-1207.9 806.4,-1996.3 C 10639.5,15117 9784.8,14808 8996.33,15142.7 v 0"
         style="fill:#214e8d;fill-opacity:1;fill-rule:nonzero;stroke:none"
         id="path76" /><path
         d="m 5636.2,14745 c -779.95,331.2 -1104.32,1133.7 -773.07,1913.9 330.93,780.3 1151.98,1147.8 1932.21,816.9 780.27,-331.2 1129.48,-1195.7 798.28,-1975.9 C 7262.64,14719.6 6416.48,14413.8 5636.2,14745 v 0"
         style="fill:#214e8d;fill-opacity:1;fill-rule:nonzero;stroke:none"
         id="path78" /><path
         d="m 3002.07,12874.7 c -727.57,308.7 -1030.19,1057.4 -721.23,1785 308.75,727.6 1074.71,1070.5 1802.29,761.7 727.57,-308.9 1053.24,-1115.1 744.49,-1842.7 -308.97,-727.6 -1097.98,-1013 -1825.55,-704 v 0"
         style="fill:#214e8d;fill-opacity:1;fill-rule:nonzero;stroke:none"
         id="path80" /><path
         d="m 16118.5,5014.14 c -217.9,93.16 -315.4,333.59 -223,551.73 92.7,218.2 333.9,315.64 551.5,222.43 218,-92.13 315.4,-333.59 223,-550.69 -92.4,-218.2 -333.9,-315.65 -551.5,-223.47 v 0"
         style="fill:#214e8d;fill-opacity:1;fill-rule:nonzero;stroke:none"
         id="path82" /><path
         d="m 16814,7739.1 c -217.6,92.13 -315.1,333.58 -222.7,550.7 92.5,218.14 333.7,315.58 551.5,223.46 217.7,-93.22 315.1,-333.59 222.7,-551.79 -92.4,-218.14 -333.6,-315.58 -551.5,-222.37 v 0"
         style="fill:#214e8d;fill-opacity:1;fill-rule:nonzero;stroke:none"
         id="path84" /><path
         d="m 15494.4,12836.3 c -217.9,92.4 -315.3,333.6 -222.9,551.5 92.4,217.6 333.9,315.4 551.5,222.7 217.9,-92.4 315.3,-333.6 222.9,-551.5 -92.4,-217.7 -333.8,-315.1 -551.5,-222.7 v 0"
         style="fill:#214e8d;fill-opacity:1;fill-rule:nonzero;stroke:none"
         id="path86" /><path
         d="m 16540.5,10391.7 c -217.9,92.5 -315.3,333.7 -222.9,551.5 92.4,218 333.6,315.4 551.5,223 217.9,-92.7 315.3,-333.9 222.9,-551.5 -92.6,-217.9 -333.8,-315.4 -551.5,-223 v 0"
         style="fill:#214e8d;fill-opacity:1;fill-rule:nonzero;stroke:none"
         id="path88" /></g></g></svg>
